<svg xmlns="http://www.w3.org/2000/svg" viewBox="0 0 512 512"><g transform="matrix(1.33333 0 0 -1.33333 0 202.64)"><rect width="384" height="384" x="1.353" y="-151.679" rx="18.75" ry="18.75" style="fill:#480866;stroke-width:.75;paint-order:stroke fill markers;stop-color:#000;fill-opacity:1" transform="scale(1 -1)"/><path d="M207.445 99.172h-29.589c-2.143 0-3.922-1.745-3.96-3.888l2.078-30.245c.002-2.261 1.78-4.037 3.964-4.037h25.425a3.964 3.964 0 0 1 3.96 3.96l.009.257 2.077 30.164c-.042 2.044-1.82 3.789-3.965 3.789M205.363-56.117h-25.425a3.968 3.968 0 0 1-3.962-3.963l-.008-.254-2.075-30.163c.041-2.046 1.819-3.79 3.963-3.79h29.59c2.144 0 3.922 1.744 3.96 3.888l-2.08 30.243c0 2.261-1.779 4.04-3.963 4.04" style="fill:#f57c2b;fill-opacity:1;fill-rule:nonzero;stroke:none;stroke-width:.213369"/><path d="m285.212 21.527-29.633-2.078c-2.263-.005-4.04-1.782-4.04-3.965v-26.082a3.966 3.966 0 0 1 3.96-3.962l.265-.008 29.503-2.076c2.042.042 3.785 1.82 3.785 3.964v30.245c0 2.131-1.72 3.896-3.84 3.962M100.035 21.53c-2.043-.041-3.786-1.82-3.786-3.965V-12.68c0-2.144 1.743-3.923 3.886-3.96l29.586 2.077c2.264.003 4.04 1.781 4.04 3.965v26.082a3.965 3.965 0 0 1-3.96 3.96l-.263.009-29.503 2.076" style="fill:#76cc67;fill-opacity:1;fill-rule:nonzero;stroke:none;stroke-width:.213369"/><path d="M243.048 34.86c1.492-1.493 4.11-1.493 5.603 0l.185.175 22.797 19.863c.642.67 1.033 1.645 1.033 2.68a3.92 3.92 0 0 1-1.157 2.8l-20.921 20.924c-1.518 1.515-4.009 1.539-5.552.054L225.122 58.5c-.8-.803-1.209-1.8-1.209-2.857 0-1.06.41-2.057 1.158-2.804l17.977-17.979M142.254-29.975a3.948 3.948 0 0 1-2.8 1.158 3.942 3.942 0 0 1-2.802-1.16l-.184-.17-22.8-19.865c-.642-.67-1.033-1.646-1.033-2.68 0-1.062.41-2.055 1.155-2.8l20.923-20.924c1.519-1.517 4.01-1.542 5.551-.053l19.913 22.856c1.597 1.6 1.6 4.115.055 5.658l-17.978 17.98" style="fill:#6d78c4;fill-opacity:1;fill-rule:nonzero;stroke:none;stroke-width:.213369"/><path d="M249.116-29.976c-.734.733-1.767 1.1-2.802 1.1-1.035 0-2.068-.367-2.802-1.1L225.07-48.42a3.965 3.965 0 0 1 0-5.601l.176-.189 19.397-22.334c1.475-1.41 3.964-1.389 5.481.128l21.387 21.386a3.941 3.941 0 0 1 1.157 2.801 3.938 3.938 0 0 1-1.103 2.747l-22.45 19.506M136.185 34.863c1.467-1.468 4.14-1.468 5.604 0l18.443 18.441a3.967 3.967 0 0 1 0 5.603l-.176.19-19.398 22.333c-.718.687-1.677 1.033-2.648 1.033a4 4 0 0 1-2.832-1.16L113.79 59.913a3.932 3.932 0 0 1-1.157-2.8c0-1.034.393-2.01 1.103-2.747l22.45-19.504" style="fill:#df1b2f;fill-opacity:1;fill-rule:nonzero;stroke:none;stroke-width:.213369"/><path d="M218.553 2.443c0-15.033-12.186-27.219-27.22-27.219-15.032 0-27.219 12.186-27.219 27.22 0 15.033 12.187 27.219 27.22 27.219s27.219-12.186 27.219-27.22M110.48-133.078v-49.87a1.53 1.53 0 0 0-1.531-1.531h-3.824a1.53 1.53 0 0 0-1.53 1.53v45.021l-13.712-33.693a3.06 3.06 0 0 0-2.832-1.905h-1.959a3.056 3.056 0 0 0-2.833 1.905l-13.711 33.693v-44.946c0-.845-.687-1.53-1.531-1.53h-3.824a1.53 1.53 0 0 0-1.53 1.53v49.796a3.06 3.06 0 0 0 3.06 3.06h5.373a3.06 3.06 0 0 0 2.836-1.91l13.146-32.298 13.147 32.298a3.058 3.058 0 0 0 2.835 1.91h5.36a3.06 3.06 0 0 0 3.06-3.06M284.062-184.48h-3.621c-.903 0-1.633.73-1.633 1.631v35.214c0 .901.73 1.63 1.633 1.63h3.62c.901 0 1.633-.729 1.633-1.63v-35.214c0-.9-.732-1.632-1.632-1.632M284.066-141.3h-3.632c-.9 0-1.63.732-1.63 1.63v3.632c0 .9.73 1.63 1.63 1.63h3.632c.9 0 1.63-.73 1.63-1.63v-3.631c0-.899-.73-1.63-1.63-1.63M270.231-180.747l-.139-2.861a1.543 1.543 0 0 0-1.604-1.453c-4.669.17-10.265-.037-13.54 3.93-1.757 2.127-2.175 5.225-2.408 7.873-.194 2.2-.132 4.422-.132 6.625v30.694c0 .842.69 1.532 1.53 1.532h3.825c.84 0 1.53-.69 1.53-1.532v-10.065h8.382c.843 0 1.532-.69 1.532-1.53v-2.861c0-.841-.69-1.53-1.532-1.53h-8.383s0-18.007.015-18.007c.015-3.088.444-5.278 1.302-6.53.948-1.485 3.364-2.359 7.234-2.634.53-.038 1.118-.008 1.607-.27a1.47 1.47 0 0 0 .781-1.38M165.58-141.3h-3.629c-.902 0-1.632.732-1.632 1.63v3.632c0 .9.73 1.63 1.632 1.63h3.63c.9 0 1.63-.73 1.63-1.63v-3.631c0-.899-.73-1.63-1.63-1.63M146.326-146.984c-2.146 1.405-4.734 1.856-7.254 1.96-4.005.16-8.043-.28-11.984-.967a40.792 40.792 0 0 1-4.184-.948 1.545 1.545 0 0 1-1.178-1.82l.596-2.799a1.545 1.545 0 0 1 1.823-1.177c1.928.394 3.84.867 5.78 1.194 3.26.546 7.226.993 10.445.03.963-.288 1.804-.858 2.346-1.715.654-1.037.57-2.37.559-3.547-.005-.685-.085-5.22-.085-5.22-1.79.2-4.436.306-7.955.306-5.508 0-9.485-.734-11.932-2.219-2.907-1.787-4.362-4.847-4.362-9.177 0-3.778.98-6.764 2.938-8.95 1.959-2.188 5.554-3.289 10.756-3.289 6.271 0 11.06.799 14.38 2.373.87.367 1.727 1.04 2.234 1.85.58.95.749 2.066.749 3.122v20.039c0 3.719-.2 8.69-3.672 10.954m-3.136-27.705c0-1.116-.107-1.989-.306-2.601-.26-.565-.749-.995-1.455-1.3-1.896-.766-4.511-1.148-7.878-1.148-3.06 0-5.155.583-6.27 1.728-1.134 1.149-1.684 2.83-1.684 5.081 0 2.187.611 3.67 1.836 4.436 1.423.964 4.284 1.453 8.566 1.453 2.54 0 4.942-.107 7.191-.306v-7.343M206.375-177.855c-3.616-.7-7.22-1.494-10.922-1.5h-.045c-3.917 0-6.825.827-8.676 2.494-1.866 1.654-2.815 4.849-2.876 9.592h23.101c.673 0 1.209.152 1.606.46.414.351.61 1.145.61 2.37 0 2.601-.075 4.758-.228 6.471a24.714 24.714 0 0 1-1.07 5.233c-.551 1.79-1.362 3.18-2.402 4.207-1.056 1.024-2.494 1.85-4.33 2.494-1.835.626-4.07.946-6.731.946-5.905 0-10.327-1.59-13.233-4.772-2.907-3.198-4.361-8.353-4.361-15.497 0-7.037 1.347-12.117 4.055-15.268 2.708-3.136 7.298-4.697 13.769-4.697 4.336 0 8.735.54 12.85 1.652.844.229 1.377.965 1.224 1.79l-.55 2.814c-.153.828-.964 1.364-1.79 1.21m-19.996 24.203c1.53 1.834 4.085 2.752 7.649 2.752 3.32 0 5.57-.732 6.779-2.217 1.192-1.484 1.788-3.778 1.788-6.883 0-.81-.016-1.41-.076-1.763h-18.586c.105 3.566.917 6.274 2.446 8.11M167.212-147.534v-39.776c0-4.163-.851-8.827-4.255-11.6-2.972-2.425-7.065-3.005-10.753-3.409a1.53 1.53 0 0 0-1.683 1.361l-.305 2.847c-.032.292.014.566.137.813.236.488.653.695 1.165.794 2.643.514 6.095.994 7.656 3.495 1.02 1.634 1.154 3.753 1.154 5.622v39.853c0 .84.688 1.53 1.529 1.53h3.825c.84 0 1.53-.69 1.53-1.53M323.629-182.437c.104-.743-.604-1.067-1.246-1.28-1.658-.54-3.438-.832-5.155-1.107-2.185-.353-4.458-.623-6.67-.483-5.142.122-9.013 1.59-11.629 4.392-2.722 2.923-4.084 7.954-4.084 15.1 0 7.235 1.362 12.514 4.084 15.804 2.358 2.827 6.09 4.433 11.2 4.818 3.969.296 7.698-.214 11.55-1.09.58-.133.932-.282 1.222-.73.2-.322.275-.704.2-1.103l-.567-2.815a1.52 1.52 0 0 0-1.796-1.193s-1.2.242-1.217.244c-4.613.932-12.601 2.12-15.573-2.77-1.424-2.339-2.14-5.842-2.14-10.476 0-4.852.702-8.43 2.093-10.74 1.41-2.327 4.07-3.49 8.001-3.49 2.64 0 5.31.235 7.88.843 1.178.258 1.867.382 2.065.382.602 0 .982-.34 1.11-.89 0 0 .661-3.345.672-3.416M244.254-173.817c0-3.316-1.095-6.656-3.823-8.705-3.784-2.84-9.13-2.983-13.65-2.678-2.998.203-5.918.785-8.804 1.604-.624.178-1.414.305-1.857.829-.337.398-.459.95-.29 1.47l.886 2.724a1.53 1.53 0 0 0 1.929.978s.558-.15.87-.245a38.327 38.327 0 0 1 9.343-1.63c2.54-.127 5.693-.054 7.52 2.028 1.45 1.652 1.818 4.78.074 6.348-.766.687-2.433 1.408-4.973 2.172-5.49 1.56-12.547 2.654-14.334 9.04-1.267 4.539.055 10.178 4.3 12.68 2.983 1.75 6.488 2.267 9.9 2.21 3.532-.058 7.113-.564 10.476-1.657a1.542 1.542 0 0 0 1.057-1.316c0-.209-.017-.407-.078-.61l-.887-2.725c-.257-.791-1.11-1.25-1.9-.985a30.245 30.245 0 0 1-5.704 1.284c-2.762.359-6.158.732-8.638-.911-1.758-1.165-2.591-3.626-1.96-5.63.756-2.395 3.641-3.215 5.78-3.882 0 0 5.27-1.605 5.277-1.61 5.494-1.67 9.486-4.507 9.486-10.783" style="fill:#f9f9f9;fill-opacity:1;fill-rule:nonzero;stroke:none;stroke-width:.213369"/></g></svg>
