<svg xmlns="http://www.w3.org/2000/svg" style="fill:#fff" viewBox="67 80 156 156"><rect width="156" height="156" x="67" y="80" rx="7.617" ry="7.617" style="fill:#4c60d8"/><path d="M99.31 179.47c-1.164 0-2.082-.383-2.73-1.14-.65-.76-.98-1.869-.98-3.297v-2.706c0-1.428.33-2.537.98-3.297.648-.757 1.566-1.14 2.73-1.14s2.082.383 2.729 1.14c.65.76.98 1.87.98 3.297v2.706c0 1.428-.33 2.537-.98 3.298-.647.756-1.565 1.14-2.73 1.14m5.868-12.86a6.716 6.716 0 0 0-2.557-1.805c-.994-.401-2.108-.605-3.31-.605s-2.316.204-3.31.605a6.718 6.718 0 0 0-2.557 1.805c-.7.795-1.248 1.795-1.63 2.97-.383 1.174-.578 2.553-.578 4.1 0 1.545.195 2.924.577 4.098.383 1.176.932 2.176 1.63 2.97A6.711 6.711 0 0 0 96 182.554c.995.402 2.109.605 3.31.605 1.203 0 2.317-.203 3.311-.605a6.716 6.716 0 0 0 2.557-1.805c.698-.794 1.247-1.794 1.63-2.97.383-1.175.577-2.554.577-4.099 0-1.545-.194-2.924-.576-4.098-.384-1.176-.933-2.176-1.63-2.97M118.822 174.747v2.367c0 .84-.232 1.515-.691 2.007-.457.49-1.044.74-1.743.74-.706 0-1.296-.174-1.755-.516-.457-.34-.68-.798-.68-1.399v-4.032c0-.6.223-1.057.68-1.398.46-.343 1.05-.516 1.755-.516.699 0 1.285.249 1.743.74.459.492.691 1.167.691 2.007m-1.16-6.046c-.898 0-1.708.25-2.405.745-.65.461-1.089 1.053-1.304 1.762v-2.195h-4.027v19.036h4.027v-7.414a3.647 3.647 0 0 0 1.302 1.766c.328.238.7.426 1.105.559.406.132.844.2 1.302.2 1.756 0 3.102-.63 4-1.871.892-1.233 1.344-3.04 1.344-5.372s-.452-4.134-1.344-5.358c-.898-1.233-2.244-1.858-4-1.858M129.137 174.434c0-.823.216-1.491.641-1.984.423-.488 1.018-.736 1.767-.736.746 0 1.304.246 1.658.73.36.495.543 1.155.543 1.964v.146h-4.61zm7.277-3.593c-.518-.649-1.194-1.174-2.008-1.56-.816-.384-1.804-.58-2.939-.58-1.03 0-1.961.173-2.766.514a5.588 5.588 0 0 0-2.048 1.467c-.551.631-.973 1.399-1.253 2.282-.279.88-.42 1.874-.42 2.953 0 1.097.146 2.104.433 2.993.289.893.724 1.661 1.294 2.282a5.854 5.854 0 0 0 2.099 1.453c.822.341 1.77.514 2.817.514 1.254 0 2.39-.204 3.376-.606.989-.404 1.801-.974 2.414-1.694l.048-.056-2.033-2.535-.07.072c-.428.44-.895.822-1.389 1.135-.486.308-1.127.463-1.903.463-1.01 0-1.76-.255-2.224-.758-.468-.505-.705-1.2-.705-2.068v-.118h8.766v-1.233c0-.922-.12-1.819-.355-2.664a6.305 6.305 0 0 0-1.134-2.256M147.973 168.701c-1.092 0-1.96.27-2.58.802a4.3 4.3 0 0 0-1.28 1.825l-.005-2.315h-4.027v13.834h4.027v-8.933c0-.313.067-.592.198-.828.131-.24.31-.444.534-.61.225-.165.481-.287.763-.362a3.47 3.47 0 0 1 .888-.114c.675 0 1.15.2 1.408.597.267.409.402 1.053.402 1.916v8.334h4.027V174.2c0-1.745-.37-3.111-1.098-4.06-.734-.954-1.83-1.439-3.257-1.439M155.423 167.838h2.341v11.684h-2.341v3.325h8.813v-3.325h-2.34v-11.684h2.34v-3.325h-8.813zM171.827 168.124h4.073c.564 0 1.013.146 1.332.433.318.284.478.713.478 1.273v1.145c0 .56-.16.99-.478 1.273-.319.287-.767.433-1.332.433h-4.073zm8.624-1.97a5.194 5.194 0 0 0-1.759-1.205c-.684-.289-1.466-.436-2.324-.436h-8.672v18.334h4.131v-6.555h4.541c.858 0 1.64-.147 2.324-.436a5.186 5.186 0 0 0 1.76-1.204 5.325 5.325 0 0 0 1.124-1.852c.263-.717.395-1.524.395-2.398 0-.855-.132-1.657-.395-2.384a5.308 5.308 0 0 0-1.125-1.864M195.377 176.724l-.037.099a4.758 4.758 0 0 1-1.264 1.877c-.562.511-1.325.77-2.268.77-1.131 0-2.05-.37-2.732-1.103-.683-.734-1.03-1.82-1.03-3.23v-2.913c0-1.41.347-2.497 1.03-3.23.682-.733 1.6-1.104 2.732-1.104.96 0 1.697.224 2.19.667.497.447.87 1.05 1.107 1.794l.031.1 3.576-1.855-.034-.076c-.664-1.484-1.56-2.587-2.661-3.278-1.102-.69-2.518-1.041-4.21-1.041-1.237 0-2.369.212-3.363.631a6.839 6.839 0 0 0-2.556 1.858c-.699.812-1.247 1.829-1.63 3.022-.383 1.19-.577 2.57-.577 4.098 0 1.547.194 2.917.577 4.073.383 1.16.932 2.142 1.63 2.919a6.715 6.715 0 0 0 2.557 1.766c.995.392 2.126.591 3.363.591 1.692 0 3.113-.386 4.224-1.147 1.11-.76 2.017-1.852 2.696-3.247l.037-.074zM138.123 121.261l-2.72-3.171 1.456-1.249a12.44 12.44 0 0 1 16.28 0l1.436 1.231-2.72 3.172-1.436-1.231a8.284 8.284 0 0 0-10.84 0zM135.4 148.795l-14.927-12.798 14.923-12.794 2.72 3.172-11.224 9.622 11.227 9.626zM145 158.186c-2.892 0-5.782-1.011-8.14-3.033l-1.455-1.247 2.72-3.172 1.454 1.247a8.283 8.283 0 0 0 10.84 0l1.43-1.227 2.72 3.172-1.43 1.227a12.476 12.476 0 0 1-8.14 3.033M154.58 148.811l-2.72-3.172 11.247-9.642-11.242-9.638 2.72-3.172 14.942 12.81z"/><path d="M152.892 135.997a7.892 7.892 0 1 1-15.784 0 7.892 7.892 0 0 1 15.784 0M114.184 200.972q-.798 0-1.438-.247-.64-.258-1.09-.752-.45-.506-.697-1.248-.247-.752-.247-1.752 0-.99.247-1.753.248-.775.697-1.292.45-.528 1.09-.798.64-.27 1.438-.27 1.09 0 1.798.45.708.438 1.134 1.393l-1.471.764q-.158-.494-.495-.787-.326-.303-.966-.303-.753 0-1.213.495-.45.483-.45 1.415v1.259q0 .932.45 1.427.46.483 1.213.483.63 0 1-.337.382-.349.562-.832l1.393.81q-.438.898-1.157 1.392-.708.483-1.798.483zM121.33 200.972q-.775 0-1.416-.258-.64-.258-1.09-.764-.45-.517-.696-1.27-.248-.764-.248-1.764t.248-1.752q.247-.764.696-1.27.45-.517 1.09-.775.64-.259 1.416-.259.775 0 1.416.259.64.258 1.09.775.449.506.696 1.27.247.752.247 1.752t-.247 1.764q-.247.753-.697 1.27-.449.506-1.09.764-.64.258-1.415.258zm0-1.516q.775 0 1.202-.506.438-.506.438-1.45v-1.168q0-.944-.438-1.45-.427-.505-1.202-.505-.775 0-1.214.506-.427.505-.427 1.45v1.168q0 .943.427 1.45.439.505 1.214.505zM132.071 195.692h-.034l-.573 1.146-1.528 2.775-1.494-2.764-.595-1.236h-.034v5.225h-1.607v-7.843h1.81l1.92 3.674h.023l1.899-3.674h1.82v7.843h-1.607zM141.273 195.692h-.034l-.573 1.146-1.528 2.775-1.494-2.764-.595-1.236h-.034v5.225h-1.607v-7.843h1.81l1.92 3.674h.023l1.899-3.674h1.82v7.843h-1.607zM146.228 192.995v4.809q0 .831.326 1.247.326.405 1.09.405t1.09-.405q.326-.416.326-1.247v-4.809h1.662v4.63q0 .864-.168 1.505-.157.629-.528 1.045-.371.404-.955.606-.585.191-1.427.191-.843 0-1.427-.19-.584-.203-.955-.607-.37-.416-.54-1.045-.157-.64-.157-1.506v-4.629zM154.8 197.13l-.752-1.573h-.034v5.28h-1.606v-7.842h1.865l2.146 3.708.753 1.573h.033v-5.28h1.607v7.842h-1.865zM160.239 200.838v-1.36h1.011v-5.123h-1.011v-1.36h3.73v1.36h-1.01v5.123h1.01v1.36zM168.62 194.512v6.326h-1.707v-6.326h-2.124v-1.517h5.955v1.517zM173.868 200.838v-3.068l-2.685-4.775h1.91l1.685 3.124h.022l1.618-3.124h1.854l-2.685 4.764v3.079z"/></svg>
