<svg xmlns="http://www.w3.org/2000/svg" viewBox="0 0 1000 1000" xml:space="preserve" fill="#a8a8a8"><path d="M990 501.9c0 .4-.1.8-.1 1.2 0 .2 0 .4-.1.6 0 .3-.1.6-.1.9 0 .3-.1.7-.1 1v.1c-1.2 7.8-4.8 15-10.2 20.6-10.3 12.5-21.5 24.2-32.8 35.7-61.1 62-131.1 117.3-207.8 157.4-49 25.6-101.4 46.3-155.7 56.3-59.7 10.9-119.5 10.4-179-2.5-47.1-10.3-92.1-27.7-135-49.8l1.4-1.4L393 641.4c30 21.7 67 34.7 107 34.7 101.5 0 183.7-82.3 183.7-183.7 0-13.6-1.6-26.7-4.4-39.4l161.9-106.5c10.7 8.1 21.3 16.3 31.7 24.8 37.8 30.8 75 64.6 106.3 102.5 5.5 5.6 9 12.9 10.2 20.6v.1c.1.3.1.7.1 1 0 .3.1.6.1.9 0 .2 0 .4.1.6 0 .4.1.8.1 1.2 0 .6.1 1.2.1 1.9.1.5.1 1.2.1 1.8zm-490 82.3c-6 0-11.9-.6-17.6-1.7l107.3-70.6c-8.9 41.3-45.7 72.3-89.7 72.3zm403-325.3L107 779.3l-.3.2c-3.6 2.4-7.9 3.8-12.6 3.8-12.7 0-23-10.3-23-23 0-8 4.1-15.1 10.4-19.2l796-520.4.3-.2c3.6-2.4 7.9-3.8 12.6-3.8 12.7 0 23 10.3 23 23 0 8-4.1 15.1-10.4 19.2zM500 400.5c8.8 0 17.2 1.3 25.2 3.6l-116.4 77.6c5.3-45.7 44.1-81.2 91.2-81.2zm111.5-54c-30.9-23.7-69.5-37.9-111.5-37.9-101.5 0-183.7 82.3-183.7 183.7 0 16.2 2.3 31.9 6.3 46.9L163.1 645.5l-8.3 5.6c-9.6-7.2-19-14.6-28.3-22.2-37.8-30.8-75-64.6-106.3-102.5-13.7-16.6-13.7-36.2 0-52.8C30.5 461.1 41.7 449.4 53 438c61.1-62 131.1-117.3 207.8-157.4 49-25.6 101.4-46.3 155.7-56.3 59.7-10.9 119.5-10.4 179 2.5 44.3 9.6 86.7 25.7 127.2 45.9l-8.4 5.3-102.8 68.5z"/></svg>
