<svg xmlns="http://www.w3.org/2000/svg" viewBox="0 0 1000 1000" xml:space="preserve" fill="#a8a8a8"><path d="M989.9 501.9c0 .4-.1.8-.1 1.2 0 .2 0 .4-.1.6 0 .3-.1.6-.1.9 0 .3-.1.7-.1 1v.1c-1.2 7.8-4.8 15-10.2 20.6-10.3 12.5-21.5 24.2-32.8 35.7-61.1 62-131.1 117.3-207.8 157.4-49 25.6-101.4 46.3-155.7 56.2-59.7 10.9-119.5 10.4-179-2.5-102.8-22.4-196-77.9-277.4-144.3-37.8-30.8-75-64.6-106.3-102.5-13.7-16.6-13.7-36.2 0-52.8 10.3-12.5 21.5-24.2 32.8-35.6 61.1-62 131.1-117.3 207.8-157.4 49-25.6 101.4-46.3 155.7-56.3 59.7-10.9 119.5-10.4 179 2.5 102.8 22.4 196 77.9 277.4 144.3 37.8 30.8 75 64.6 106.3 102.5 5.5 5.6 9 12.9 10.2 20.6v.1c.1.3.1.7.1 1 0 .3.1.6.1.9 0 .2 0 .4.1.6 0 .4.1.8.1 1.2 0 .6.1 1.2.1 1.9 0 .8 0 1.5-.1 2.1zM500 308.6c-101.5 0-183.7 82.3-183.7 183.7C316.3 593.8 398.6 676 500 676c101.5 0 183.7-82.3 183.7-183.7 0-101.4-82.2-183.7-183.7-183.7zm0 275.6c-50.7 0-91.9-41.1-91.9-91.9 0-50.7 41.1-91.9 91.9-91.9s91.9 41.1 91.9 91.9c0 50.8-41.2 91.9-91.9 91.9z"/></svg>
